<?xml version="1.0" standalone="no"?><svg xmlns="http://www.w3.org/2000/svg" viewBox="0 0 1440 320"><path fill="#827717" fill-opacity="1" d="M0,96L10,85.3C20,75,40,53,60,48C80,43,100,53,120,90.7C140,128,160,192,180,186.7C200,181,220,107,240,112C260,117,280,203,300,224C320,245,340,203,360,192C380,181,400,203,420,208C440,213,460,203,480,202.7C500,203,520,213,540,234.7C560,256,580,288,600,288C620,288,640,256,660,229.3C680,203,700,181,720,160C740,139,760,117,780,106.7C800,96,820,96,840,101.3C860,107,880,117,900,133.3C920,149,940,171,960,192C980,213,1000,235,1020,202.7C1040,171,1060,85,1080,64C1100,43,1120,85,1140,112C1160,139,1180,149,1200,144C1220,139,1240,117,1260,112C1280,107,1300,117,1320,117.3C1340,117,1360,107,1380,90.7C1400,75,1420,53,1430,42.7L1440,32L1440,320L1430,320C1420,320,1400,320,1380,320C1360,320,1340,320,1320,320C1300,320,1280,320,1260,320C1240,320,1220,320,1200,320C1180,320,1160,320,1140,320C1120,320,1100,320,1080,320C1060,320,1040,320,1020,320C1000,320,980,320,960,320C940,320,920,320,900,320C880,320,860,320,840,320C820,320,800,320,780,320C760,320,740,320,720,320C700,320,680,320,660,320C640,320,620,320,600,320C580,320,560,320,540,320C520,320,500,320,480,320C460,320,440,320,420,320C400,320,380,320,360,320C340,320,320,320,300,320C280,320,260,320,240,320C220,320,200,320,180,320C160,320,140,320,120,320C100,320,80,320,60,320C40,320,20,320,10,320L0,320Z"></path></svg>